<mxfile host="app.diagrams.net" agent="Mozilla/5.0 (Windows NT 10.0; Win64; x64) AppleWebKit/537.36 (KHTML, like Gecko) Chrome/129.0.0.0 Safari/537.36" version="24.7.17">
  <diagram name="Page-1" id="OwQuq-6CoNUlKj4UJfSm">
    <mxGraphModel dx="2085" dy="665" grid="1" gridSize="10" guides="1" tooltips="1" connect="1" arrows="1" fold="1" page="1" pageScale="1" pageWidth="850" pageHeight="1100" math="0" shadow="0">
      <root>
        <mxCell id="0" />
        <mxCell id="1" parent="0" />
        <mxCell id="nfMOGAMxNZfprRWn-_rR-2" value="Zaposleni" style="whiteSpace=wrap;html=1;align=center;" vertex="1" parent="1">
          <mxGeometry x="250" y="270" width="100" height="40" as="geometry" />
        </mxCell>
        <mxCell id="nfMOGAMxNZfprRWn-_rR-3" value="Id" style="ellipse;whiteSpace=wrap;html=1;align=center;fontStyle=4;" vertex="1" parent="1">
          <mxGeometry x="120" y="190" width="100" height="40" as="geometry" />
        </mxCell>
        <mxCell id="nfMOGAMxNZfprRWn-_rR-4" value="jmbg" style="ellipse;whiteSpace=wrap;html=1;align=center;" vertex="1" parent="1">
          <mxGeometry x="230" y="190" width="100" height="40" as="geometry" />
        </mxCell>
        <mxCell id="nfMOGAMxNZfprRWn-_rR-5" value="ime" style="ellipse;whiteSpace=wrap;html=1;align=center;" vertex="1" parent="1">
          <mxGeometry x="350" y="190" width="100" height="40" as="geometry" />
        </mxCell>
        <mxCell id="nfMOGAMxNZfprRWn-_rR-6" value="" style="endArrow=none;html=1;rounded=0;exitX=0.5;exitY=1;exitDx=0;exitDy=0;entryX=0;entryY=0;entryDx=0;entryDy=0;" edge="1" parent="1" source="nfMOGAMxNZfprRWn-_rR-3" target="nfMOGAMxNZfprRWn-_rR-2">
          <mxGeometry relative="1" as="geometry">
            <mxPoint x="130" y="270" as="sourcePoint" />
            <mxPoint x="290" y="270" as="targetPoint" />
          </mxGeometry>
        </mxCell>
        <mxCell id="nfMOGAMxNZfprRWn-_rR-7" value="" style="endArrow=none;html=1;rounded=0;exitX=0.5;exitY=1;exitDx=0;exitDy=0;entryX=0.5;entryY=0;entryDx=0;entryDy=0;" edge="1" parent="1" source="nfMOGAMxNZfprRWn-_rR-4" target="nfMOGAMxNZfprRWn-_rR-2">
          <mxGeometry relative="1" as="geometry">
            <mxPoint x="470" y="270" as="sourcePoint" />
            <mxPoint x="630" y="270" as="targetPoint" />
          </mxGeometry>
        </mxCell>
        <mxCell id="nfMOGAMxNZfprRWn-_rR-8" value="" style="endArrow=none;html=1;rounded=0;exitX=1;exitY=0;exitDx=0;exitDy=0;entryX=0.5;entryY=1;entryDx=0;entryDy=0;" edge="1" parent="1" source="nfMOGAMxNZfprRWn-_rR-2" target="nfMOGAMxNZfprRWn-_rR-5">
          <mxGeometry relative="1" as="geometry">
            <mxPoint x="470" y="230" as="sourcePoint" />
            <mxPoint x="630" y="230" as="targetPoint" />
          </mxGeometry>
        </mxCell>
        <mxCell id="nfMOGAMxNZfprRWn-_rR-9" value="Adresa" style="ellipse;whiteSpace=wrap;html=1;align=center;" vertex="1" parent="1">
          <mxGeometry x="430" y="290" width="100" height="40" as="geometry" />
        </mxCell>
        <mxCell id="nfMOGAMxNZfprRWn-_rR-10" value="Ziro racun" style="ellipse;whiteSpace=wrap;html=1;align=center;" vertex="1" parent="1">
          <mxGeometry x="450" y="230" width="100" height="40" as="geometry" />
        </mxCell>
        <mxCell id="nfMOGAMxNZfprRWn-_rR-11" value="" style="endArrow=none;html=1;rounded=0;exitX=1;exitY=0.5;exitDx=0;exitDy=0;entryX=0;entryY=0.5;entryDx=0;entryDy=0;" edge="1" parent="1" source="nfMOGAMxNZfprRWn-_rR-2" target="nfMOGAMxNZfprRWn-_rR-10">
          <mxGeometry relative="1" as="geometry">
            <mxPoint x="430" y="370" as="sourcePoint" />
            <mxPoint x="590" y="370" as="targetPoint" />
          </mxGeometry>
        </mxCell>
        <mxCell id="nfMOGAMxNZfprRWn-_rR-12" value="" style="endArrow=none;html=1;rounded=0;exitX=1;exitY=1;exitDx=0;exitDy=0;entryX=0;entryY=0.5;entryDx=0;entryDy=0;" edge="1" parent="1" source="nfMOGAMxNZfprRWn-_rR-2" target="nfMOGAMxNZfprRWn-_rR-9">
          <mxGeometry relative="1" as="geometry">
            <mxPoint x="370" y="360" as="sourcePoint" />
            <mxPoint x="530" y="360" as="targetPoint" />
          </mxGeometry>
        </mxCell>
        <mxCell id="nfMOGAMxNZfprRWn-_rR-13" value="" style="triangle;whiteSpace=wrap;html=1;rotation=60;" vertex="1" parent="1">
          <mxGeometry x="300" y="385" width="50" height="50" as="geometry" />
        </mxCell>
        <mxCell id="nfMOGAMxNZfprRWn-_rR-14" value="" style="endArrow=none;html=1;rounded=0;entryX=0.5;entryY=1;entryDx=0;entryDy=0;exitX=0;exitY=0.5;exitDx=0;exitDy=0;" edge="1" parent="1" source="nfMOGAMxNZfprRWn-_rR-13" target="nfMOGAMxNZfprRWn-_rR-2">
          <mxGeometry width="50" height="50" relative="1" as="geometry">
            <mxPoint x="280" y="360" as="sourcePoint" />
            <mxPoint x="330" y="310" as="targetPoint" />
          </mxGeometry>
        </mxCell>
        <mxCell id="nfMOGAMxNZfprRWn-_rR-15" value="" style="endArrow=none;html=1;rounded=0;entryX=0.5;entryY=1;entryDx=0;entryDy=0;exitX=0.5;exitY=0;exitDx=0;exitDy=0;" edge="1" parent="1" source="nfMOGAMxNZfprRWn-_rR-16" target="nfMOGAMxNZfprRWn-_rR-13">
          <mxGeometry width="50" height="50" relative="1" as="geometry">
            <mxPoint x="220" y="460" as="sourcePoint" />
            <mxPoint x="270" y="410" as="targetPoint" />
          </mxGeometry>
        </mxCell>
        <mxCell id="nfMOGAMxNZfprRWn-_rR-16" value="Doktor" style="whiteSpace=wrap;html=1;align=center;" vertex="1" parent="1">
          <mxGeometry x="130" y="430" width="100" height="40" as="geometry" />
        </mxCell>
        <mxCell id="nfMOGAMxNZfprRWn-_rR-17" value="Administrativno osoblje&amp;nbsp;" style="whiteSpace=wrap;html=1;align=center;" vertex="1" parent="1">
          <mxGeometry x="260" y="490" width="100" height="40" as="geometry" />
        </mxCell>
        <mxCell id="nfMOGAMxNZfprRWn-_rR-18" value="Radnici na odrzavanju" style="whiteSpace=wrap;html=1;align=center;" vertex="1" parent="1">
          <mxGeometry x="480" y="410" width="100" height="40" as="geometry" />
        </mxCell>
        <mxCell id="nfMOGAMxNZfprRWn-_rR-19" value="" style="endArrow=none;html=1;rounded=0;exitX=1;exitY=0.5;exitDx=0;exitDy=0;entryX=0.5;entryY=0;entryDx=0;entryDy=0;" edge="1" parent="1" source="nfMOGAMxNZfprRWn-_rR-13" target="nfMOGAMxNZfprRWn-_rR-17">
          <mxGeometry relative="1" as="geometry">
            <mxPoint x="340" y="390" as="sourcePoint" />
            <mxPoint x="300" y="460" as="targetPoint" />
          </mxGeometry>
        </mxCell>
        <mxCell id="nfMOGAMxNZfprRWn-_rR-20" value="" style="endArrow=none;html=1;rounded=0;exitX=0.5;exitY=0;exitDx=0;exitDy=0;entryX=0;entryY=0;entryDx=0;entryDy=0;" edge="1" parent="1" source="nfMOGAMxNZfprRWn-_rR-13" target="nfMOGAMxNZfprRWn-_rR-18">
          <mxGeometry relative="1" as="geometry">
            <mxPoint x="500" y="370" as="sourcePoint" />
            <mxPoint x="660" y="370" as="targetPoint" />
          </mxGeometry>
        </mxCell>
        <mxCell id="nfMOGAMxNZfprRWn-_rR-21" value="Stepen strucne spreme" style="whiteSpace=wrap;html=1;align=center;" vertex="1" parent="1">
          <mxGeometry x="160" y="680" width="100" height="40" as="geometry" />
        </mxCell>
        <mxCell id="nfMOGAMxNZfprRWn-_rR-22" value="ID" style="ellipse;whiteSpace=wrap;html=1;align=center;fontStyle=4;" vertex="1" parent="1">
          <mxGeometry x="30" y="750" width="100" height="40" as="geometry" />
        </mxCell>
        <mxCell id="nfMOGAMxNZfprRWn-_rR-23" value="Naziv" style="ellipse;whiteSpace=wrap;html=1;align=center;" vertex="1" parent="1">
          <mxGeometry x="270" y="740" width="100" height="40" as="geometry" />
        </mxCell>
        <mxCell id="nfMOGAMxNZfprRWn-_rR-24" value="" style="endArrow=none;html=1;rounded=0;exitX=0.5;exitY=0;exitDx=0;exitDy=0;entryX=0;entryY=1;entryDx=0;entryDy=0;" edge="1" parent="1" source="nfMOGAMxNZfprRWn-_rR-22" target="nfMOGAMxNZfprRWn-_rR-21">
          <mxGeometry relative="1" as="geometry">
            <mxPoint x="210" y="620" as="sourcePoint" />
            <mxPoint x="370" y="620" as="targetPoint" />
          </mxGeometry>
        </mxCell>
        <mxCell id="nfMOGAMxNZfprRWn-_rR-25" value="" style="endArrow=none;html=1;rounded=0;exitX=1;exitY=1;exitDx=0;exitDy=0;entryX=0.5;entryY=0;entryDx=0;entryDy=0;" edge="1" parent="1" source="nfMOGAMxNZfprRWn-_rR-21" target="nfMOGAMxNZfprRWn-_rR-23">
          <mxGeometry relative="1" as="geometry">
            <mxPoint x="430" y="610" as="sourcePoint" />
            <mxPoint x="590" y="610" as="targetPoint" />
          </mxGeometry>
        </mxCell>
        <mxCell id="nfMOGAMxNZfprRWn-_rR-26" value="Relationship" style="shape=rhombus;perimeter=rhombusPerimeter;whiteSpace=wrap;html=1;align=center;rotation=-60;" vertex="1" parent="1">
          <mxGeometry x="220" y="580" width="90" height="50" as="geometry" />
        </mxCell>
        <mxCell id="nfMOGAMxNZfprRWn-_rR-28" value="" style="endArrow=none;html=1;rounded=0;exitX=0.614;exitY=0.99;exitDx=0;exitDy=0;entryX=1;entryY=1;entryDx=0;entryDy=0;exitPerimeter=0;" edge="1" parent="1" source="nfMOGAMxNZfprRWn-_rR-17" target="nfMOGAMxNZfprRWn-_rR-26">
          <mxGeometry relative="1" as="geometry">
            <mxPoint x="420" y="600" as="sourcePoint" />
            <mxPoint x="580" y="600" as="targetPoint" />
          </mxGeometry>
        </mxCell>
        <mxCell id="nfMOGAMxNZfprRWn-_rR-29" value="" style="endArrow=none;html=1;rounded=0;exitX=0.359;exitY=0.99;exitDx=0;exitDy=0;exitPerimeter=0;entryX=1;entryY=0;entryDx=0;entryDy=0;" edge="1" parent="1" source="nfMOGAMxNZfprRWn-_rR-17" target="nfMOGAMxNZfprRWn-_rR-26">
          <mxGeometry relative="1" as="geometry">
            <mxPoint x="440" y="560" as="sourcePoint" />
            <mxPoint x="600" y="560" as="targetPoint" />
          </mxGeometry>
        </mxCell>
        <mxCell id="nfMOGAMxNZfprRWn-_rR-30" value="Honorar" style="whiteSpace=wrap;html=1;align=center;" vertex="1" parent="1">
          <mxGeometry x="540" y="670" width="100" height="40" as="geometry" />
        </mxCell>
        <mxCell id="nfMOGAMxNZfprRWn-_rR-31" value="ID" style="ellipse;whiteSpace=wrap;html=1;align=center;fontStyle=4;" vertex="1" parent="1">
          <mxGeometry x="810" y="820" width="100" height="40" as="geometry" />
        </mxCell>
        <mxCell id="nfMOGAMxNZfprRWn-_rR-32" value="visina honorara&amp;nbsp;" style="ellipse;whiteSpace=wrap;html=1;align=center;" vertex="1" parent="1">
          <mxGeometry x="870" y="640" width="100" height="40" as="geometry" />
        </mxCell>
        <mxCell id="nfMOGAMxNZfprRWn-_rR-33" value="" style="endArrow=none;html=1;rounded=0;exitX=0;exitY=0.5;exitDx=0;exitDy=0;entryX=1;entryY=1;entryDx=0;entryDy=0;" edge="1" parent="1" source="nfMOGAMxNZfprRWn-_rR-31" target="nfMOGAMxNZfprRWn-_rR-30">
          <mxGeometry relative="1" as="geometry">
            <mxPoint x="710" y="670" as="sourcePoint" />
            <mxPoint x="700" y="700" as="targetPoint" />
          </mxGeometry>
        </mxCell>
        <mxCell id="nfMOGAMxNZfprRWn-_rR-35" value="" style="endArrow=none;html=1;rounded=0;exitX=1;exitY=0;exitDx=0;exitDy=0;entryX=0.5;entryY=1;entryDx=0;entryDy=0;" edge="1" parent="1" source="nfMOGAMxNZfprRWn-_rR-30" target="nfMOGAMxNZfprRWn-_rR-32">
          <mxGeometry relative="1" as="geometry">
            <mxPoint x="710" y="650" as="sourcePoint" />
            <mxPoint x="870" y="650" as="targetPoint" />
          </mxGeometry>
        </mxCell>
        <mxCell id="nfMOGAMxNZfprRWn-_rR-38" value="Relationship" style="shape=rhombus;perimeter=rhombusPerimeter;whiteSpace=wrap;html=1;align=center;rotation=40;" vertex="1" parent="1">
          <mxGeometry x="400" y="590" width="100" height="40" as="geometry" />
        </mxCell>
        <mxCell id="nfMOGAMxNZfprRWn-_rR-42" value="" style="endArrow=none;html=1;rounded=0;exitX=1;exitY=0.5;exitDx=0;exitDy=0;entryX=0;entryY=0;entryDx=0;entryDy=0;" edge="1" parent="1" source="nfMOGAMxNZfprRWn-_rR-17" target="nfMOGAMxNZfprRWn-_rR-38">
          <mxGeometry relative="1" as="geometry">
            <mxPoint x="500" y="570" as="sourcePoint" />
            <mxPoint x="660" y="570" as="targetPoint" />
          </mxGeometry>
        </mxCell>
        <mxCell id="nfMOGAMxNZfprRWn-_rR-43" value="" style="endArrow=none;html=1;rounded=0;exitX=1;exitY=1;exitDx=0;exitDy=0;entryX=0;entryY=1;entryDx=0;entryDy=0;" edge="1" parent="1" source="nfMOGAMxNZfprRWn-_rR-17" target="nfMOGAMxNZfprRWn-_rR-38">
          <mxGeometry relative="1" as="geometry">
            <mxPoint x="340" y="570" as="sourcePoint" />
            <mxPoint x="500" y="570" as="targetPoint" />
          </mxGeometry>
        </mxCell>
        <mxCell id="nfMOGAMxNZfprRWn-_rR-45" value="" style="endArrow=classic;html=1;rounded=0;entryX=0.5;entryY=0;entryDx=0;entryDy=0;exitX=0;exitY=0.5;exitDx=0;exitDy=0;" edge="1" parent="1" source="nfMOGAMxNZfprRWn-_rR-26" target="nfMOGAMxNZfprRWn-_rR-21">
          <mxGeometry width="50" height="50" relative="1" as="geometry">
            <mxPoint x="100" y="610" as="sourcePoint" />
            <mxPoint x="150" y="560" as="targetPoint" />
          </mxGeometry>
        </mxCell>
        <mxCell id="nfMOGAMxNZfprRWn-_rR-46" value="" style="endArrow=classic;html=1;rounded=0;exitX=1;exitY=0.5;exitDx=0;exitDy=0;entryX=0;entryY=0.5;entryDx=0;entryDy=0;" edge="1" parent="1" source="nfMOGAMxNZfprRWn-_rR-38" target="nfMOGAMxNZfprRWn-_rR-30">
          <mxGeometry width="50" height="50" relative="1" as="geometry">
            <mxPoint x="740" y="560" as="sourcePoint" />
            <mxPoint x="790" y="510" as="targetPoint" />
          </mxGeometry>
        </mxCell>
        <mxCell id="nfMOGAMxNZfprRWn-_rR-47" value="Relationship" style="shape=rhombus;perimeter=rhombusPerimeter;whiteSpace=wrap;html=1;align=center;rotation=75;" vertex="1" parent="1">
          <mxGeometry x="520" y="530" width="100" height="40" as="geometry" />
        </mxCell>
        <mxCell id="nfMOGAMxNZfprRWn-_rR-48" value="" style="endArrow=none;html=1;rounded=0;exitX=0;exitY=1;exitDx=0;exitDy=0;entryX=0.5;entryY=1;entryDx=0;entryDy=0;" edge="1" parent="1" source="nfMOGAMxNZfprRWn-_rR-47" target="nfMOGAMxNZfprRWn-_rR-18">
          <mxGeometry relative="1" as="geometry">
            <mxPoint x="580" y="460" as="sourcePoint" />
            <mxPoint x="740" y="460" as="targetPoint" />
          </mxGeometry>
        </mxCell>
        <mxCell id="nfMOGAMxNZfprRWn-_rR-49" value="" style="endArrow=none;html=1;rounded=0;exitX=0;exitY=0;exitDx=0;exitDy=0;entryX=0.657;entryY=0.996;entryDx=0;entryDy=0;entryPerimeter=0;" edge="1" parent="1" source="nfMOGAMxNZfprRWn-_rR-47" target="nfMOGAMxNZfprRWn-_rR-18">
          <mxGeometry relative="1" as="geometry">
            <mxPoint x="620" y="470" as="sourcePoint" />
            <mxPoint x="780" y="470" as="targetPoint" />
          </mxGeometry>
        </mxCell>
        <mxCell id="nfMOGAMxNZfprRWn-_rR-50" value="" style="endArrow=classic;html=1;rounded=0;exitX=1;exitY=0.5;exitDx=0;exitDy=0;entryX=0.5;entryY=0;entryDx=0;entryDy=0;" edge="1" parent="1" source="nfMOGAMxNZfprRWn-_rR-47" target="nfMOGAMxNZfprRWn-_rR-30">
          <mxGeometry width="50" height="50" relative="1" as="geometry">
            <mxPoint x="670" y="550" as="sourcePoint" />
            <mxPoint x="720" y="500" as="targetPoint" />
          </mxGeometry>
        </mxCell>
        <mxCell id="nfMOGAMxNZfprRWn-_rR-51" value="Fakultet" style="whiteSpace=wrap;html=1;align=center;" vertex="1" parent="1">
          <mxGeometry x="-80" y="620" width="100" height="40" as="geometry" />
        </mxCell>
        <mxCell id="nfMOGAMxNZfprRWn-_rR-52" value="Naziv fakulteta" style="ellipse;whiteSpace=wrap;html=1;align=center;fontStyle=4;" vertex="1" parent="1">
          <mxGeometry x="-170" y="720" width="100" height="40" as="geometry" />
        </mxCell>
        <mxCell id="nfMOGAMxNZfprRWn-_rR-53" value="" style="endArrow=none;html=1;rounded=0;exitX=0.5;exitY=0;exitDx=0;exitDy=0;entryX=0;entryY=1;entryDx=0;entryDy=0;" edge="1" parent="1" source="nfMOGAMxNZfprRWn-_rR-52" target="nfMOGAMxNZfprRWn-_rR-51">
          <mxGeometry width="50" height="50" relative="1" as="geometry">
            <mxPoint x="20" y="530" as="sourcePoint" />
            <mxPoint x="70" y="480" as="targetPoint" />
          </mxGeometry>
        </mxCell>
        <mxCell id="nfMOGAMxNZfprRWn-_rR-54" value="Relationship" style="shape=rhombus;perimeter=rhombusPerimeter;whiteSpace=wrap;html=1;align=center;rotation=-45;" vertex="1" parent="1">
          <mxGeometry x="40" y="525" width="80" height="50" as="geometry" />
        </mxCell>
        <mxCell id="nfMOGAMxNZfprRWn-_rR-55" value="" style="endArrow=none;html=1;rounded=0;entryX=1;entryY=0;entryDx=0;entryDy=0;exitX=0;exitY=1;exitDx=0;exitDy=0;" edge="1" parent="1" source="nfMOGAMxNZfprRWn-_rR-16" target="nfMOGAMxNZfprRWn-_rR-54">
          <mxGeometry relative="1" as="geometry">
            <mxPoint x="-90" y="500" as="sourcePoint" />
            <mxPoint x="70" y="500" as="targetPoint" />
          </mxGeometry>
        </mxCell>
        <mxCell id="nfMOGAMxNZfprRWn-_rR-57" value="" style="endArrow=none;html=1;rounded=0;exitX=1;exitY=1;exitDx=0;exitDy=0;entryX=0.25;entryY=1;entryDx=0;entryDy=0;" edge="1" parent="1" source="nfMOGAMxNZfprRWn-_rR-54" target="nfMOGAMxNZfprRWn-_rR-16">
          <mxGeometry relative="1" as="geometry">
            <mxPoint x="120" y="570" as="sourcePoint" />
            <mxPoint x="280" y="570" as="targetPoint" />
          </mxGeometry>
        </mxCell>
        <mxCell id="nfMOGAMxNZfprRWn-_rR-58" value="" style="endArrow=classic;html=1;rounded=0;exitX=0;exitY=0.5;exitDx=0;exitDy=0;entryX=1;entryY=0;entryDx=0;entryDy=0;" edge="1" parent="1" source="nfMOGAMxNZfprRWn-_rR-54" target="nfMOGAMxNZfprRWn-_rR-51">
          <mxGeometry width="50" height="50" relative="1" as="geometry">
            <mxPoint x="-10" y="560" as="sourcePoint" />
            <mxPoint y="580" as="targetPoint" />
          </mxGeometry>
        </mxCell>
        <mxCell id="nfMOGAMxNZfprRWn-_rR-59" value="Medicinska usluga" style="whiteSpace=wrap;html=1;align=center;" vertex="1" parent="1">
          <mxGeometry x="-330" y="420" width="100" height="40" as="geometry" />
        </mxCell>
        <mxCell id="nfMOGAMxNZfprRWn-_rR-60" value="Sifra" style="ellipse;whiteSpace=wrap;html=1;align=center;fontStyle=4;" vertex="1" parent="1">
          <mxGeometry x="-450" y="360" width="100" height="40" as="geometry" />
        </mxCell>
        <mxCell id="nfMOGAMxNZfprRWn-_rR-63" value="Ime" style="ellipse;whiteSpace=wrap;html=1;align=center;" vertex="1" parent="1">
          <mxGeometry x="-330" y="360" width="100" height="40" as="geometry" />
        </mxCell>
        <mxCell id="nfMOGAMxNZfprRWn-_rR-64" value="Opis" style="ellipse;whiteSpace=wrap;html=1;align=center;" vertex="1" parent="1">
          <mxGeometry x="-210" y="360" width="100" height="40" as="geometry" />
        </mxCell>
        <mxCell id="nfMOGAMxNZfprRWn-_rR-65" value="Relationship" style="shape=rhombus;perimeter=rhombusPerimeter;whiteSpace=wrap;html=1;align=center;" vertex="1" parent="1">
          <mxGeometry x="-120" y="415" width="100" height="50" as="geometry" />
        </mxCell>
        <mxCell id="nfMOGAMxNZfprRWn-_rR-67" value="" style="endArrow=none;html=1;rounded=0;exitX=1;exitY=0.5;exitDx=0;exitDy=0;entryX=0;entryY=0.5;entryDx=0;entryDy=0;" edge="1" parent="1" source="nfMOGAMxNZfprRWn-_rR-65" target="nfMOGAMxNZfprRWn-_rR-16">
          <mxGeometry width="50" height="50" relative="1" as="geometry">
            <mxPoint x="90" y="410" as="sourcePoint" />
            <mxPoint x="140" y="360" as="targetPoint" />
          </mxGeometry>
        </mxCell>
        <mxCell id="nfMOGAMxNZfprRWn-_rR-68" value="" style="endArrow=none;html=1;rounded=0;exitX=1;exitY=0.5;exitDx=0;exitDy=0;entryX=0;entryY=0.5;entryDx=0;entryDy=0;" edge="1" parent="1" source="nfMOGAMxNZfprRWn-_rR-59" target="nfMOGAMxNZfprRWn-_rR-65">
          <mxGeometry width="50" height="50" relative="1" as="geometry">
            <mxPoint x="-180" y="440" as="sourcePoint" />
            <mxPoint x="-130" y="390" as="targetPoint" />
          </mxGeometry>
        </mxCell>
        <mxCell id="nfMOGAMxNZfprRWn-_rR-69" value="" style="endArrow=none;html=1;rounded=0;exitX=0;exitY=0;exitDx=0;exitDy=0;entryX=0.5;entryY=1;entryDx=0;entryDy=0;" edge="1" parent="1" source="nfMOGAMxNZfprRWn-_rR-59" target="nfMOGAMxNZfprRWn-_rR-60">
          <mxGeometry relative="1" as="geometry">
            <mxPoint x="-220" y="360" as="sourcePoint" />
            <mxPoint x="-60" y="360" as="targetPoint" />
          </mxGeometry>
        </mxCell>
        <mxCell id="nfMOGAMxNZfprRWn-_rR-70" value="" style="endArrow=none;html=1;rounded=0;exitX=0.5;exitY=0;exitDx=0;exitDy=0;entryX=0.5;entryY=1;entryDx=0;entryDy=0;" edge="1" parent="1" source="nfMOGAMxNZfprRWn-_rR-59" target="nfMOGAMxNZfprRWn-_rR-63">
          <mxGeometry relative="1" as="geometry">
            <mxPoint x="-190" y="370" as="sourcePoint" />
            <mxPoint x="-30" y="370" as="targetPoint" />
          </mxGeometry>
        </mxCell>
        <mxCell id="nfMOGAMxNZfprRWn-_rR-71" value="" style="endArrow=none;html=1;rounded=0;exitX=1;exitY=0;exitDx=0;exitDy=0;entryX=0.5;entryY=1;entryDx=0;entryDy=0;" edge="1" parent="1" source="nfMOGAMxNZfprRWn-_rR-59" target="nfMOGAMxNZfprRWn-_rR-64">
          <mxGeometry relative="1" as="geometry">
            <mxPoint x="-100" y="380" as="sourcePoint" />
            <mxPoint x="60" y="380" as="targetPoint" />
          </mxGeometry>
        </mxCell>
        <mxCell id="nfMOGAMxNZfprRWn-_rR-72" value="broj godina iskustva" style="ellipse;whiteSpace=wrap;html=1;align=center;" vertex="1" parent="1">
          <mxGeometry x="-90" y="485" width="100" height="40" as="geometry" />
        </mxCell>
        <mxCell id="nfMOGAMxNZfprRWn-_rR-73" value="" style="endArrow=none;html=1;rounded=0;exitX=0.5;exitY=0;exitDx=0;exitDy=0;entryX=0.5;entryY=1;entryDx=0;entryDy=0;" edge="1" parent="1" source="nfMOGAMxNZfprRWn-_rR-72" target="nfMOGAMxNZfprRWn-_rR-65">
          <mxGeometry relative="1" as="geometry">
            <mxPoint x="-10" y="440" as="sourcePoint" />
            <mxPoint x="150" y="440" as="targetPoint" />
          </mxGeometry>
        </mxCell>
      </root>
    </mxGraphModel>
  </diagram>
</mxfile>
